<svg width="492" height="491" xmlns="http://www.w3.org/2000/svg" xmlns:xlink="http://www.w3.org/1999/xlink" xml:space="preserve" overflow="hidden"><defs><clipPath id="clip0"><rect x="97" y="270" width="492" height="491"/></clipPath><clipPath id="clip1"><path d="M97.8714 517.375 341.004 270.008 588.371 513.14 345.238 760.507Z" fill-rule="evenodd" clip-rule="evenodd"/></clipPath><clipPath id="clip2"><path d="M97.8714 517.375 341.004 270.008 588.371 513.14 345.238 760.507Z" fill-rule="evenodd" clip-rule="evenodd"/></clipPath><clipPath id="clip3"><path d="M97.8714 517.375 341.004 270.008 588.371 513.14 345.238 760.507Z" fill-rule="evenodd" clip-rule="evenodd"/></clipPath></defs><g clip-path="url(#clip0)" transform="translate(-97 -270)"><g clip-path="url(#clip1)"><g clip-path="url(#clip2)"><g clip-path="url(#clip3)"><path d="M305.787 585.456 276.712 632.428C274.47 636.13 269.988 637.821 265.858 636.522 261.566 635.413 258.561 631.548 258.544 627.115L257.842 546.047C257.951 542.128 260.231 538.594 263.757 536.88L278.593 530.336C277.835 528.072 277.135 525.727 276.435 523.388L260.724 530.322C254.684 533.205 250.78 539.24 250.626 545.93L251.327 627.169C251.315 634.834 256.488 641.537 263.905 643.468 269.789 645.248 276.174 643.623 280.491 639.247 281.387 638.332 282.18 637.322 282.859 636.235L310.289 591.922C308.812 589.883 307.33 587.752 305.787 585.456Z" stroke="#05386B" stroke-width="3.61301"/><path d="M406.222 520.908C405.57 523.267 404.908 525.61 404.19 527.903L421.933 535.55C425.536 537.021 427.898 540.518 427.916 544.41L428.618 625.649C428.761 631.078 424.476 635.596 419.046 635.74 415.624 635.83 412.4 634.134 410.537 631.262L378.658 582.532C377.219 584.796 375.775 586.989 374.325 589.11L404.493 635.216C408.543 641.669 416.446 644.565 423.707 642.257 431.084 640.127 436.082 633.272 435.852 625.597L435.151 544.358C435.103 537.561 430.979 531.458 424.691 528.879Z" stroke="#05386B" stroke-width="3.61301"/><path d="M341.86 308.789C334.975 308.85 323.005 322.745 306.29 350.081 302.153 356.867 298.237 364.031 294.336 372L289.852 381.201C279.342 407.773 274.195 436.162 274.707 464.733 275.234 527.563 305.098 574.312 322.848 596.596L323.945 597.974 359.144 597.67 360.218 596.273C381.655 568.386 407.104 522.733 406.593 463.602 406.751 435.065 401.176 406.786 390.199 380.444L385.024 369.73C382.652 364.815 380.011 359.884 377.198 355.087L373.183 348.229C357.915 322.091 349.591 308.453 341.86 308.789ZM383.628 383.449C394.183 408.864 399.539 436.137 399.376 463.657 399.86 519.757 376.08 563.357 355.561 590.465L327.421 590.706C310.139 568.653 282.445 524.057 281.932 464.67 281.421 437.14 286.349 409.78 296.433 384.159L300.829 375.176C302.271 372.231 303.728 369.413 305.171 366.687 316.247 363.584 327.679 361.936 339.18 361.784 351.364 361.712 363.5 363.296 375.257 366.493 376.387 368.617 377.481 370.751 378.511 372.883ZM366.955 351.864 370.435 357.818C360.142 355.638 349.647 354.543 339.125 354.552 329.337 354.725 319.589 355.863 310.024 357.951 310.83 356.569 311.638 355.19 312.462 353.842 328.835 327.061 339.259 316.419 341.981 316.01 346.363 316.614 358.253 336.988 366.935 351.864Z" stroke="#05386B" stroke-width="3.61301"/><path d="M346.224 606C344.711 606.486 343.148 606.802 341.565 606.943 339.889 606.878 338.227 606.616 336.612 606.163 333.573 605.44 330.127 604.622 327.239 606.936 324.596 609.069 323.51 612.895 323.57 620.174 323.661 630.719 328.727 672.108 342.196 672.424 344.36 672.355 346.399 671.399 347.835 669.779 350.958 666.602 353.614 660.555 355.871 651.537 358.443 641.153 359.801 630.506 359.918 619.809 359.747 612.478 358.496 608.477 355.735 606.432 352.711 604.189 349.268 605.151 346.224 606ZM352.693 619.907C352.857 638.873 346.274 663.837 342.369 665.202 338.105 663.752 330.952 638.321 330.794 620.096 330.538 617.583 330.816 615.044 331.612 612.647 332.743 612.676 333.865 612.858 334.948 613.185 337.147 613.788 339.413 614.116 341.693 614.161L341.811 614.16C343.974 614.011 346.111 613.605 348.177 612.951 349.232 612.608 350.313 612.358 351.411 612.202 351.449 612.256 352.53 613.378 352.693 619.907Z" stroke="#05386B" stroke-width="3.61301"/><path d="M314.72 424.616C314.797 438.52 326.129 449.729 340.033 449.653 346.86 449.616 353.379 446.807 358.095 441.872 362.787 437.152 365.407 430.757 365.374 424.102 365.233 410.113 353.779 398.888 339.79 399.029 325.802 399.17 314.577 410.625 314.718 424.613ZM358.157 424.156C358.376 434.153 350.45 442.434 340.453 442.653 330.457 442.872 322.175 434.946 321.956 424.949 321.953 424.789 321.951 424.629 321.952 424.469 321.934 419.713 323.81 415.146 327.167 411.777 334.018 404.591 345.398 404.319 352.585 411.171 356.137 414.558 358.15 419.249 358.157 424.156Z" stroke="#05386B" stroke-width="3.61301"/></g></g></g></g></svg>