<svg width="242" height="242" xmlns="http://www.w3.org/2000/svg" xmlns:xlink="http://www.w3.org/1999/xlink" xml:space="preserve" overflow="hidden"><defs><clipPath id="clip0"><rect x="478" y="61" width="242" height="242"/></clipPath></defs><g clip-path="url(#clip0)" transform="translate(-478 -61)"><path d="M686.725 159.312C684.708 159.312 682.944 159.565 680.927 160.069L675.381 143.179C690.758 135.112 696.808 116.206 688.742 100.829 680.675 85.4521 661.769 79.4021 646.392 87.4688 638.073 91.7542 632.023 99.8208 630.006 108.896L607.823 106.879C607.571 95.2833 598.244 86.2083 586.648 86.4604 575.052 86.7125 565.977 96.0396 566.229 107.635 566.229 111.921 567.742 115.954 570.01 119.483L542.281 146.96C529.173 135.617 509.258 136.877 497.915 149.985 486.571 163.094 487.579 183.008 500.688 194.352 506.485 199.394 513.796 202.167 521.358 202.167 522.115 202.167 522.871 202.167 523.627 202.167L530.433 238.467C519.342 241.744 513.292 253.34 516.569 264.431 519.846 275.523 531.442 281.573 542.533 278.296 553.625 275.019 559.675 263.423 556.398 252.331 555.894 251.071 555.39 249.81 554.885 248.55L577.321 237.206 577.321 237.206C589.673 254.096 613.369 257.625 630.006 245.273 642.862 235.694 648.408 219.308 643.871 203.931L668.323 190.571C674.121 200.402 686.725 203.931 696.808 198.133 706.64 192.335 710.169 179.731 704.371 169.648 700.842 163.346 694.035 159.312 686.725 159.312ZM645.383 136.877C646.14 128.558 653.702 122.256 662.021 123.012 669.331 123.769 675.129 129.567 675.885 136.877 666.81 143.179 654.71 143.179 645.383 136.877ZM653.702 110.912C653.702 107.131 656.727 103.854 660.76 103.854 664.794 103.854 667.819 106.879 667.819 110.912 667.819 114.694 664.794 117.971 660.76 117.971 656.979 117.971 653.702 114.694 653.702 110.912L653.702 110.912ZM660.76 88.7292C675.381 88.7292 687.229 100.577 687.229 115.198 687.229 121.752 684.708 128.054 680.423 133.096 678.91 127.298 674.625 122.256 669.079 119.735 673.869 115.198 674.121 107.635 669.583 102.594 665.046 97.8042 657.483 97.5521 652.442 102.09 647.4 106.627 647.4 114.19 651.938 119.231 652.19 119.483 652.442 119.735 652.442 119.735 646.896 122.256 642.61 127.046 641.098 133.096 631.267 122.256 632.023 105.619 642.862 95.7875 647.904 91.25 654.206 88.7292 660.76 88.7292ZM643.871 141.919 623.452 180.488C605.554 172.169 584.631 178.975 575.052 196.117L550.6 182.756C555.138 171.917 553.121 159.565 545.81 150.49L573.54 122.76C582.11 130.323 595.219 129.315 602.781 120.492 605.05 117.971 606.562 114.946 607.319 111.669L629.502 113.685C629.502 114.19 629.502 114.694 629.502 115.198 629.25 126.037 634.796 136.121 643.871 141.919ZM583.623 104.358C583.623 102.342 585.135 100.829 587.152 100.829 589.169 100.829 590.681 102.342 590.681 104.358 590.681 106.375 589.169 107.887 587.152 107.887 587.152 107.887 587.152 107.887 587.152 107.887 585.135 107.635 583.623 106.123 583.623 104.358ZM587.152 112.677C591.438 112.677 594.967 115.702 595.723 119.987 590.429 123.517 583.875 123.517 578.581 119.987 579.085 115.954 582.615 112.929 587.152 112.677ZM587.152 91.25C595.723 91.25 602.781 98.3083 603.033 106.879 603.033 110.156 602.025 113.433 600.008 116.206 598.748 113.433 596.731 110.912 593.958 109.4 595.219 107.887 595.723 106.123 595.723 104.106 595.723 99.3167 591.942 95.5354 587.152 95.5354 582.362 95.5354 578.581 99.3167 578.581 104.106 578.581 106.123 579.338 107.887 580.346 109.4 577.573 110.912 575.556 113.181 574.296 116.206 569.254 109.148 570.767 99.3167 577.573 94.275 580.346 92.2583 583.623 91.25 587.152 91.25ZM495.142 170.656C495.142 156.035 506.99 144.188 521.61 144.188 536.231 144.188 548.079 156.035 548.079 170.656 548.079 177.21 545.558 183.512 541.273 188.554 539.76 182.756 535.475 177.715 529.929 175.194 534.719 170.656 534.971 163.094 530.433 158.052 525.896 153.01 518.333 153.01 513.292 157.548 508.502 162.085 508.25 169.648 512.787 174.69 513.04 174.942 513.292 175.194 513.292 175.194 507.746 177.715 503.46 182.504 501.948 188.554 497.41 183.512 495.142 177.21 495.142 170.656ZM514.552 166.371C514.552 162.59 517.577 159.312 521.61 159.312 525.644 159.312 528.669 162.337 528.669 166.371 528.669 170.152 525.644 173.429 521.61 173.429 517.577 173.429 514.552 170.152 514.552 166.371ZM506.233 192.335C506.99 184.017 514.552 177.715 522.871 178.471 530.181 179.227 535.979 185.025 536.735 192.335 527.66 198.637 515.308 198.637 506.233 192.335ZM527.912 271.49C528.669 266.7 532.954 263.423 537.744 264.179 541.525 264.683 544.55 267.708 545.054 271.49 540.013 274.767 533.206 274.767 527.912 271.49ZM533.206 255.608C533.206 253.592 534.719 252.079 536.735 252.079 538.752 252.079 540.265 253.592 540.265 255.608 540.265 257.625 538.752 259.138 536.735 259.138 534.719 258.885 533.206 257.373 533.206 255.608L533.206 255.608ZM549.34 267.456C548.079 264.683 546.062 262.163 543.29 260.65 544.55 259.138 545.054 257.373 545.054 255.356 545.054 250.567 541.273 246.785 536.483 246.785 531.694 246.785 527.912 250.567 527.912 255.356 527.912 257.373 528.669 259.138 529.677 260.65 526.904 262.163 524.888 264.431 523.627 267.456 518.585 260.398 520.098 250.567 527.156 245.525 534.215 240.483 544.046 241.996 549.088 249.054 553.373 254.348 553.373 261.91 549.34 267.456L549.34 267.456ZM551.86 244.265C548.079 239.979 542.533 237.458 536.735 237.458 536.483 237.458 535.979 237.458 535.727 237.458L528.921 201.158C536.987 199.142 544.046 194.1 548.331 187.042L572.783 200.402C568.498 210.99 569.254 222.837 574.548 232.669L551.86 244.265ZM588.665 241.24C589.421 230.652 598.748 222.837 609.335 223.594 618.662 224.35 626.225 231.913 626.981 241.24 615.638 249.558 600.008 249.558 588.665 241.24ZM598.748 209.477C598.748 204.435 602.781 200.402 607.823 200.402 612.865 200.402 616.898 204.435 616.898 209.477 616.898 214.519 612.865 218.552 607.823 218.552 607.823 218.552 607.823 218.552 607.823 218.552 602.781 218.552 598.748 214.519 598.748 209.477ZM631.519 237.458C629.754 229.644 624.208 223.342 616.898 220.317 622.948 215.275 623.704 206.452 618.662 200.402 613.621 194.352 604.798 193.596 598.748 198.637 592.698 203.679 591.942 212.502 596.983 218.552 597.487 219.308 598.244 219.812 598.748 220.317 591.438 223.342 585.892 229.644 584.127 237.458 571.523 224.35 572.027 203.679 585.135 191.075 598.244 178.471 618.915 178.975 631.519 192.083 643.619 204.688 643.619 224.854 631.519 237.458ZM642.106 199.142C639.081 192.335 634.04 186.79 627.99 182.756L648.408 144.188C655.467 147.212 663.281 147.465 670.592 145.196L676.138 162.085C667.819 166.875 663.785 176.706 666.558 185.781L642.106 199.142ZM677.902 193.344C678.658 188.554 682.944 185.277 687.733 186.033 691.515 186.537 694.54 189.562 695.044 193.344 690.002 196.621 683.196 196.621 677.902 193.344ZM683.196 177.462C683.196 175.446 684.708 173.933 686.725 173.933 688.742 173.933 690.254 175.446 690.254 177.462 690.254 179.479 688.742 180.992 686.725 180.992 686.725 180.992 686.725 180.992 686.725 180.992 684.708 180.74 683.196 179.227 683.196 177.462L683.196 177.462ZM699.329 189.31C698.069 186.537 696.052 184.017 693.279 182.504 694.54 180.992 695.044 179.227 695.044 177.21 695.044 172.421 691.263 168.64 686.473 168.64 681.683 168.64 677.902 172.421 677.902 177.21 677.902 179.227 678.658 180.992 679.667 182.504 676.894 184.017 674.877 186.285 673.617 189.31 668.575 182.252 670.087 172.421 677.146 167.379 684.204 162.337 694.035 163.85 699.077 170.908 703.362 176.202 703.362 183.765 699.329 189.31 699.329 189.31 699.329 189.31 699.329 189.31Z" stroke="#05386B" stroke-width="2.52084"/></g></svg>