<?xml version="1.0" encoding="UTF-8" standalone="no"?>
<svg
   xmlns:dc="http://purl.org/dc/elements/1.1/"
   xmlns:cc="http://creativecommons.org/ns#"
   xmlns:rdf="http://www.w3.org/1999/02/22-rdf-syntax-ns#"
   xmlns:svg="http://www.w3.org/2000/svg"
   xmlns="http://www.w3.org/2000/svg"
   xmlns:sodipodi="http://sodipodi.sourceforge.net/DTD/sodipodi-0.dtd"
   xmlns:inkscape="http://www.inkscape.org/namespaces/inkscape"
   width="1920"
   zoomAndPan="magnify"
   viewBox="0 0 1440 809.999993"
   height="1080"
   preserveAspectRatio="xMidYMid meet"
   version="1.0"
   id="svg71"
   sodipodi:docname="picture5.svg"
   inkscape:version="1.0.2-2 (e86c870879, 2021-01-15)">
  <metadata
     id="metadata75">
    <rdf:RDF>
      <cc:Work
         rdf:about="">
        <dc:format>image/svg+xml</dc:format>
        <dc:type
           rdf:resource="http://purl.org/dc/dcmitype/StillImage" />
      </cc:Work>
    </rdf:RDF>
  </metadata>
  <sodipodi:namedview
     pagecolor="#ffffff"
     bordercolor="#666666"
     borderopacity="1"
     objecttolerance="10"
     gridtolerance="10"
     guidetolerance="10"
     inkscape:pageopacity="0"
     inkscape:pageshadow="2"
     inkscape:window-width="1920"
     inkscape:window-height="1001"
     id="namedview73"
     showgrid="false"
     inkscape:zoom="0.6328125"
     inkscape:cx="960"
     inkscape:cy="516.2963"
     inkscape:window-x="-9"
     inkscape:window-y="-9"
     inkscape:window-maximized="1"
     inkscape:current-layer="svg71" />
  <defs
     id="defs29">
    <clipPath
       id="id1">
      <path
         d="M 112.5 63.28125 L 1327.5 63.28125 L 1327.5 746.71875 L 112.5 746.71875 Z M 112.5 63.28125 "
         clip-rule="nonzero"
         id="path2" />
    </clipPath>
    <clipPath
       id="id2">
      <path
         d="M 274.097656 439.902344 L 290.550781 439.902344 L 290.550781 456.355469 L 274.097656 456.355469 Z M 274.097656 439.902344 "
         clip-rule="nonzero"
         id="path5" />
    </clipPath>
    <clipPath
       id="id3">
      <path
         d="M 332.769531 606.378906 L 349.222656 606.378906 L 349.222656 622.832031 L 332.769531 622.832031 Z M 332.769531 606.378906 "
         clip-rule="nonzero"
         id="path8" />
    </clipPath>
    <clipPath
       id="id4">
      <path
         d="M 290.472656 193.355469 L 306.925781 193.355469 L 306.925781 209.808594 L 290.472656 209.808594 Z M 290.472656 193.355469 "
         clip-rule="nonzero"
         id="path11" />
    </clipPath>
    <clipPath
       id="id5">
      <path
         d="M 164.019531 277.648438 L 180.472656 277.648438 L 180.472656 294.101562 L 164.019531 294.101562 Z M 164.019531 277.648438 "
         clip-rule="nonzero"
         id="path14" />
    </clipPath>
    <clipPath
       id="id6">
      <path
         d="M 249.375 574.851562 L 265.828125 574.851562 L 265.828125 591.304688 L 249.375 591.304688 Z M 249.375 574.851562 "
         clip-rule="nonzero"
         id="path17" />
    </clipPath>
    <clipPath
       id="id7">
      <path
         d="M 1089.441406 224.996094 L 1105.894531 224.996094 L 1105.894531 241.449219 L 1089.441406 241.449219 Z M 1089.441406 224.996094 "
         clip-rule="nonzero"
         id="path20" />
    </clipPath>
    <clipPath
       id="id8">
      <path
         d="M 1187.074219 543.324219 L 1203.527344 543.324219 L 1203.527344 559.777344 L 1187.074219 559.777344 Z M 1187.074219 543.324219 "
         clip-rule="nonzero"
         id="path23" />
    </clipPath>
    <clipPath
       id="id9">
      <path
         d="M 1223.847656 386.6875 L 1242.199219 386.6875 L 1242.199219 405.039062 L 1223.847656 405.039062 Z M 1223.847656 386.6875 "
         clip-rule="nonzero"
         id="path26" />
    </clipPath>
  </defs>
  <rect
     x="116.40631"
     width="1208.0381"
     fill="#ffffff"
     y="66.819557"
     height="679.58783"
     fill-opacity="1"
     id="rect33"
     style="stroke-width:0.699131" />
  <g
     clip-path="url(#id1)"
     id="g37"
     transform="matrix(1.1833866,0,0,1.1768836,-132.03841,-72.823045)">
    <path
       fill="#5cdb95"
       d="m 112.5,63.28125 h 1215 v 683.4375 h -1215 z m 0,0"
       fill-opacity="1"
       fill-rule="nonzero"
       id="path35" />
  </g>
  <g
     clip-path="url(#id2)"
     id="g41">
    <path
       fill="#05386b"
       d="M 282.324219 439.902344 C 277.78125 439.902344 274.097656 443.589844 274.097656 448.132812 C 274.097656 452.675781 277.78125 456.355469 282.324219 456.355469 C 286.871094 456.355469 290.554688 452.675781 290.554688 448.132812 C 290.554688 443.589844 286.871094 439.902344 282.324219 439.902344 Z M 282.324219 452.144531 C 280.117188 452.144531 278.324219 450.355469 278.324219 448.144531 C 278.324219 445.933594 280.117188 444.144531 282.324219 444.144531 C 284.535156 444.144531 286.324219 445.933594 286.324219 448.144531 C 286.324219 450.355469 284.535156 452.144531 282.324219 452.144531 Z M 282.324219 452.144531 "
       fill-opacity="1"
       fill-rule="nonzero"
       id="path39" />
  </g>
  <g
     clip-path="url(#id3)"
     id="g45">
    <path
       fill="#05386b"
       d="M 340.996094 606.378906 C 336.453125 606.378906 332.769531 610.066406 332.769531 614.609375 C 332.769531 619.152344 336.453125 622.832031 340.996094 622.832031 C 345.539062 622.832031 349.222656 619.152344 349.222656 614.609375 C 349.222656 610.066406 345.539062 606.378906 340.996094 606.378906 Z M 340.996094 618.621094 C 338.789062 618.621094 336.996094 616.832031 336.996094 614.621094 C 336.996094 612.410156 338.789062 610.621094 340.996094 610.621094 C 343.207031 610.621094 344.996094 612.410156 344.996094 614.621094 C 344.996094 616.832031 343.207031 618.621094 340.996094 618.621094 Z M 340.996094 618.621094 "
       fill-opacity="1"
       fill-rule="nonzero"
       id="path43" />
  </g>
  <g
     clip-path="url(#id4)"
     id="g49">
    <path
       fill="#05386b"
       d="M 298.699219 193.351562 C 294.152344 193.351562 290.472656 197.039062 290.472656 201.582031 C 290.472656 206.125 294.152344 209.808594 298.699219 209.808594 C 303.242188 209.808594 306.925781 206.125 306.925781 201.582031 C 306.925781 197.039062 303.242188 193.351562 298.699219 193.351562 Z M 298.699219 205.59375 C 296.488281 205.59375 294.695312 203.804688 294.695312 201.59375 C 294.695312 199.386719 296.488281 197.59375 298.699219 197.59375 C 300.90625 197.59375 302.699219 199.386719 302.699219 201.59375 C 302.699219 203.804688 300.90625 205.59375 298.699219 205.59375 Z M 298.699219 205.59375 "
       fill-opacity="1"
       fill-rule="nonzero"
       id="path47" />
  </g>
  <g
     clip-path="url(#id5)"
     id="g53">
    <path
       fill="#05386b"
       d="M 172.25 277.648438 C 167.703125 277.648438 164.019531 281.332031 164.019531 285.878906 C 164.019531 290.417969 167.703125 294.101562 172.25 294.101562 C 176.792969 294.101562 180.476562 290.417969 180.476562 285.878906 C 180.476562 281.332031 176.792969 277.648438 172.25 277.648438 Z M 172.25 289.890625 C 170.039062 289.890625 168.246094 288.097656 168.246094 285.890625 C 168.246094 283.679688 170.039062 281.890625 172.25 281.890625 C 174.457031 281.890625 176.25 283.679688 176.25 285.890625 C 176.25 288.097656 174.457031 289.890625 172.25 289.890625 Z M 172.25 289.890625 "
       fill-opacity="1"
       fill-rule="nonzero"
       id="path51" />
  </g>
  <g
     clip-path="url(#id6)"
     id="g57">
    <path
       fill="#05386b"
       d="M 257.601562 574.851562 C 253.058594 574.851562 249.375 578.535156 249.375 583.082031 C 249.375 587.621094 253.058594 591.304688 257.601562 591.304688 C 262.144531 591.304688 265.828125 587.621094 265.828125 583.082031 C 265.828125 578.535156 262.144531 574.851562 257.601562 574.851562 Z M 257.601562 587.09375 C 255.390625 587.09375 253.597656 585.300781 253.597656 583.09375 C 253.597656 580.882812 255.390625 579.09375 257.601562 579.09375 C 259.808594 579.09375 261.601562 580.882812 261.601562 583.09375 C 261.601562 585.300781 259.808594 587.09375 257.601562 587.09375 Z M 257.601562 587.09375 "
       fill-opacity="1"
       fill-rule="nonzero"
       id="path55" />
  </g>
  <g
     clip-path="url(#id7)"
     id="g61">
    <path
       fill="#05386b"
       d="M 1097.667969 224.992188 C 1093.125 224.992188 1089.441406 228.679688 1089.441406 233.222656 C 1089.441406 237.765625 1093.125 241.449219 1097.667969 241.449219 C 1102.210938 241.449219 1105.894531 237.765625 1105.894531 233.222656 C 1105.894531 228.679688 1102.210938 224.992188 1097.667969 224.992188 Z M 1097.667969 237.234375 C 1095.457031 237.234375 1093.667969 235.445312 1093.667969 233.234375 C 1093.667969 231.023438 1095.457031 229.234375 1097.667969 229.234375 C 1099.878906 229.234375 1101.667969 231.023438 1101.667969 233.234375 C 1101.667969 235.445312 1099.878906 237.234375 1097.667969 237.234375 Z M 1097.667969 237.234375 "
       fill-opacity="1"
       fill-rule="nonzero"
       id="path59" />
  </g>
  <g
     clip-path="url(#id8)"
     id="g65">
    <path
       fill="#05386b"
       d="M 1195.304688 543.324219 C 1190.757812 543.324219 1187.074219 547.007812 1187.074219 551.550781 C 1187.074219 556.09375 1190.757812 559.777344 1195.304688 559.777344 C 1199.847656 559.777344 1203.53125 556.09375 1203.53125 551.550781 C 1203.53125 547.007812 1199.847656 543.324219 1195.304688 543.324219 Z M 1195.304688 555.566406 C 1193.09375 555.566406 1191.300781 553.773438 1191.300781 551.566406 C 1191.300781 549.355469 1193.09375 547.566406 1195.304688 547.566406 C 1197.511719 547.566406 1199.304688 549.355469 1199.304688 551.566406 C 1199.304688 553.773438 1197.511719 555.566406 1195.304688 555.566406 Z M 1195.304688 555.566406 "
       fill-opacity="1"
       fill-rule="nonzero"
       id="path63" />
  </g>
  <g
     clip-path="url(#id9)"
     id="g69">
    <path
       fill="#05386b"
       d="M 1233.023438 386.6875 C 1227.957031 386.6875 1223.847656 390.796875 1223.847656 395.867188 C 1223.847656 400.933594 1227.957031 405.039062 1233.023438 405.039062 C 1238.09375 405.039062 1242.199219 400.933594 1242.199219 395.867188 C 1242.199219 390.796875 1238.09375 386.6875 1233.023438 386.6875 Z M 1233.023438 400.339844 C 1230.558594 400.339844 1228.5625 398.34375 1228.5625 395.878906 C 1228.5625 393.414062 1230.558594 391.417969 1233.023438 391.417969 C 1235.488281 391.417969 1237.484375 393.414062 1237.484375 395.878906 C 1237.484375 398.34375 1235.488281 400.339844 1233.023438 400.339844 Z M 1233.023438 400.339844 "
       fill-opacity="1"
       fill-rule="nonzero"
       id="path67" />
  </g>
</svg>
