<svg width="282" height="282" xmlns="http://www.w3.org/2000/svg" xmlns:xlink="http://www.w3.org/1999/xlink" xml:space="preserve" overflow="hidden"><defs><clipPath id="clip0"><rect x="537" y="37" width="282" height="282"/></clipPath></defs><g clip-path="url(#clip0)" transform="translate(-537 -37)"><path d="M801.863 103.55C805.126 100.811 806.271 96.2905 804.703 92.3287 803.19 88.4018 799.427 85.8022 795.219 85.7781L771.131 85.7781C769.282 85.8033 767.65 84.5755 767.161 82.7918L759.259 59.0738C757.928 54.8964 754.071 52.0409 749.686 51.9868 745.305 51.9472 741.421 54.7984 740.145 58.9904L732.185 82.8764C731.605 84.5713 730.034 85.7281 728.243 85.7781L704.151 85.7781C699.982 85.9241 696.28 88.4812 694.667 92.3272 693.006 96.2758 694.157 100.847 697.49 103.538L706.05 111.212 717.077 120.74C717.683 121.277 718.127 121.974 718.359 122.751 718.517 123.596 718.51 124.465 718.339 125.308L710.444 150.165C709.1 154.283 710.598 158.796 714.139 161.291 717.613 163.717 722.177 163.917 725.849 161.803L747.338 146.598C748.779 145.616 750.679 145.635 752.1 146.645L773.32 161.678C775.009 162.831 777.003 163.455 779.048 163.47 781.295 163.457 783.473 162.689 785.233 161.29 788.63 158.697 790.096 154.29 788.927 150.178L781.554 125.104C781.07 123.486 781.545 121.734 782.779 120.582ZM775.95 126.86 783.297 151.854C783.775 153.627 783.129 155.513 781.664 156.621 780.236 157.826 778.174 157.915 776.647 156.838L755.563 141.898C753.855 140.639 751.786 139.965 749.665 139.976 747.583 139.961 745.553 140.618 743.876 141.851L722.869 156.733C721.181 157.638 719.134 157.546 717.533 156.495 716.07 155.463 715.469 153.586 716.059 151.896L723.99 126.92 724.07 126.604C724.437 124.869 724.437 123.078 724.07 121.343L723.918 120.825C723.323 119.008 722.23 117.394 720.762 116.168L709.933 106.8 701.215 98.9989C699.903 97.9502 699.441 96.1618 700.079 94.6085 700.764 92.9291 702.341 91.7832 704.15 91.651L728.241 91.651C732.595 91.6081 736.436 88.7887 737.782 84.6471L745.743 60.7614C746.249 59.0141 747.865 57.8243 749.684 57.8598 751.505 57.918 753.094 59.1127 753.655 60.846L761.557 84.564C762.818 88.7914 766.718 91.6786 771.129 91.651L795.217 91.651C797.063 91.6801 798.692 92.8642 799.289 94.6111 799.875 96.2435 799.349 98.0677 797.984 99.1378L778.91 116.162C775.903 118.834 774.744 123.022 775.95 126.86Z" stroke="#05386B" stroke-width="2.93753"/><path d="M576.848 191.924C572.488 196.151 568.294 200.421 564.378 204.614 563.272 205.801 563.337 207.659 564.523 208.766 565.71 209.873 567.569 209.808 568.676 208.621 572.52 204.5 576.648 200.302 580.939 196.144 582.104 195.014 582.134 193.154 581.004 191.989 579.874 190.823 578.014 190.794 576.848 191.924Z" stroke="#05386B" stroke-width="2.93753"/><path d="M591.834 184.982C592.552 184.983 593.245 184.72 593.782 184.244 615.586 164.827 639.547 147.978 665.194 134.026 666.622 133.254 667.154 131.471 666.382 130.044 665.611 128.616 663.828 128.084 662.4 128.856 636.358 143.022 612.028 160.131 589.886 179.846 588.672 180.922 588.559 182.778 589.635 183.993 590.193 184.622 590.993 184.982 591.834 184.982Z" stroke="#05386B" stroke-width="2.93753"/><path d="M679.515 126.397C679.951 126.398 680.381 126.3 680.774 126.112 686.052 123.602 691.425 121.218 696.744 119.029 698.245 118.411 698.96 116.694 698.342 115.193 697.724 113.692 696.007 112.977 694.506 113.595 689.093 115.824 683.625 118.251 678.25 120.807 676.785 121.504 676.163 123.257 676.861 124.722 677.348 125.745 678.381 126.397 679.515 126.396Z" stroke="#05386B" stroke-width="2.93753"/><path d="M700.158 134.263C673.847 148.172 649.907 166.163 629.227 187.565 628.087 188.72 628.099 190.58 629.254 191.72 630.409 192.86 632.269 192.848 633.409 191.693 653.65 170.733 677.086 153.112 702.842 139.487 704.301 138.777 704.908 137.019 704.198 135.56 703.488 134.101 701.73 133.495 700.271 134.205 700.233 134.223 700.195 134.243 700.158 134.263Z" stroke="#05386B" stroke-width="2.93753"/><path d="M621.209 200.304C619.997 199.225 618.141 199.333 617.062 200.545 617.062 200.546 617.062 200.546 617.061 200.546 613.102 204.997 609.238 209.568 605.578 214.135 604.563 215.401 604.767 217.25 606.033 218.265 607.299 219.279 609.148 219.075 610.162 217.81 613.76 213.32 617.557 208.826 621.45 204.45 622.529 203.239 622.421 201.382 621.209 200.304Z" stroke="#05386B" stroke-width="2.93753"/><path d="M662.056 199.866C642.977 222.532 626.17 247.016 611.877 272.967 611.047 274.361 611.504 276.164 612.898 276.993 614.292 277.824 616.095 277.367 616.925 275.973 616.953 275.925 616.98 275.876 617.006 275.827 631.108 250.224 647.688 226.068 666.508 203.703 667.568 202.474 667.429 200.618 666.2 199.559 664.97 198.5 663.115 198.638 662.056 199.868Z" stroke="#05386B" stroke-width="2.93753"/><path d="M699.737 163.9C690.607 170.829 682.027 178.456 674.077 186.713 672.962 187.891 673.012 189.75 674.191 190.866 675.347 191.96 677.165 191.935 678.29 190.807 686.026 182.77 694.376 175.345 703.263 168.6 704.56 167.627 704.823 165.785 703.85 164.488 702.877 163.19 701.035 162.927 699.737 163.9Z" stroke="#05386B" stroke-width="2.93753"/><path d="M607.457 287.356C606.013 286.619 604.245 287.193 603.509 288.637 603.508 288.638 603.507 288.639 603.507 288.641 600.914 293.739 599.551 296.69 599.551 296.69 598.837 298.146 599.439 299.906 600.895 300.62 602.352 301.335 604.112 300.733 604.826 299.276 604.845 299.237 604.864 299.197 604.881 299.157 604.895 299.128 606.226 296.254 608.745 291.307 609.48 289.861 608.904 288.092 607.457 287.356Z" stroke="#05386B" stroke-width="2.93753"/><path d="M598.905 227.647C597.578 226.716 595.748 227.037 594.817 228.363 594.816 228.365 594.815 228.366 594.814 228.368 591.534 233.053 589.772 235.784 589.772 235.784 588.858 237.124 589.203 238.952 590.544 239.866 591.884 240.78 593.711 240.435 594.626 239.095 594.653 239.054 594.68 239.013 594.705 238.971 594.724 238.945 596.444 236.285 599.628 231.738 600.557 230.409 600.234 228.577 598.905 227.647Z" stroke="#05386B" stroke-width="2.93753"/></g></svg>