<svg width="96" height="96" xmlns="http://www.w3.org/2000/svg" xmlns:xlink="http://www.w3.org/1999/xlink" xml:space="preserve" overflow="hidden"><defs><clipPath id="clip0"><rect x="492" y="134" width="96" height="96"/></clipPath></defs><g clip-path="url(#clip0)" transform="translate(-492 -134)"><path d="M520 163.414 530 173.414 540 163.414 550 173.414 560 163.414 571.293 174.707 572.707 173.293 560 160.586 550 170.586 540 160.586 530 170.586 520 160.586 507.293 173.293 508.707 174.707 520 163.414Z" stroke="#05386B"/><path d="M520 193.414 530 203.414 540 193.414 550 203.414 560 193.414 571.293 204.707 572.707 203.293 560 190.586 550 200.586 540 190.586 530 200.586 520 190.586 507.293 203.293 508.707 204.707 520 193.414Z" stroke="#05386B"/></g></svg>